<?xml version="1.0" standalone="no"?>
<!DOCTYPE svg PUBLIC "-//W3C//DTD SVG 20010904//EN"
 "http://www.w3.org/TR/2001/REC-SVG-20010904/DTD/svg10.dtd">
<svg version="1.0" xmlns="http://www.w3.org/2000/svg"
 width="400.000000pt" height="400.000000pt" viewBox="0 0 400.000000 400.000000"
 preserveAspectRatio="xMidYMid meet">

<g transform="translate(0.000000,400.000000) scale(0.100000,-0.100000)"
fill="#ff8a5b" stroke="none">
<path d="M2539 3210 c-146 -26 -249 -125 -249 -241 0 -46 32 -120 69 -160 26
-27 78 -58 174 -103 168 -80 241 -129 332 -220 116 -117 176 -267 174 -436 -1
-41 -5 -88 -9 -105 l-7 -30 -22 50 c-12 27 -34 65 -47 82 -21 28 -31 33 -68
33 -69 0 -172 -77 -276 -206 -47 -59 -59 -81 -54 -98 8 -25 22 -36 48 -36 11
0 59 42 115 99 115 118 146 140 165 120 14 -14 59 -147 71 -206 12 -60 74 -82
113 -40 30 32 62 172 69 303 12 229 -59 406 -224 565 -86 83 -216 169 -332
219 -113 49 -135 64 -161 105 -65 105 39 210 205 208 124 -2 225 -57 389 -213
175 -168 306 -392 362 -620 51 -209 53 -370 8 -599 -14 -68 -22 -132 -19 -142
9 -27 51 -35 75 -14 24 22 57 159 71 302 45 432 -125 873 -453 1178 -177 165
-355 235 -519 205z"/>
<path d="M1144 3032 c-182 -64 -359 -251 -479 -503 -24 -52 -51 -124 -59 -159
-14 -57 -14 -67 0 -87 16 -26 55 -30 74 -9 6 8 18 43 26 78 16 66 83 209 136
286 55 81 149 181 212 226 59 41 151 84 161 74 14 -14 27 -135 23 -221 -7
-134 5 -145 114 -108 144 49 257 46 356 -10 62 -35 96 -33 113 5 14 30 0 59
-41 83 -17 9 -30 20 -30 23 0 20 240 200 266 200 22 0 46 -122 51 -255 5 -120
7 -135 35 -190 40 -79 55 -95 90 -95 20 0 32 7 40 24 9 21 5 34 -26 91 -33 60
-36 73 -36 143 0 178 -34 320 -88 362 -69 55 -171 7 -378 -177 l-72 -63 -73 0
c-41 0 -101 -7 -134 -15 -90 -21 -85 -25 -85 65 0 206 -62 280 -196 232z"/>
<path d="M1911 2344 c-64 -57 -78 -139 -29 -165 16 -9 34 -8 74 1 28 7 64 10
78 6 26 -6 64 7 78 28 13 19 9 77 -8 106 -23 38 -64 60 -113 60 -33 0 -49 -7
-80 -36z"/>
<path d="M2340 2366 c-65 -14 -130 -44 -144 -68 -7 -11 -6 -24 2 -42 14 -32
43 -34 109 -5 41 18 60 20 134 15 95 -6 109 0 109 47 0 22 -7 31 -32 41 -51
21 -118 26 -178 12z"/>
<path d="M1082 2270 c-64 -39 -97 -127 -68 -186 25 -54 57 -60 132 -25 35 16
89 32 121 36 81 9 91 13 99 38 17 51 -18 104 -91 138 -55 26 -150 25 -193 -1z"/>
<path d="M1600 2230 c-33 -33 -27 -49 35 -94 20 -14 20 -15 -5 -41 -14 -15
-33 -31 -42 -36 -26 -14 -64 -1 -79 28 -25 47 -77 54 -99 13 -16 -30 12 -85
59 -117 26 -18 38 -33 35 -43 -4 -8 -8 -53 -11 -101 -6 -97 9 -144 52 -155 59
-15 109 21 196 138 69 93 76 111 55 142 -14 23 -14 24 13 36 43 17 83 64 79
91 -1 13 -15 30 -30 38 -26 15 -29 14 -56 -12 -26 -25 -32 -27 -51 -15 -27 16
-26 19 4 48 30 28 32 60 7 83 -22 20 -43 22 -60 5 -9 -9 -18 -9 -37 0 -35 16
-42 15 -65 -8z m119 -229 c12 -8 3 -26 -46 -92 -70 -97 -87 -108 -78 -53 12
72 26 99 63 126 43 31 42 31 61 19z"/>
<path d="M2275 2208 c-39 -21 -77 -64 -117 -130 -42 -71 -44 -99 -7 -119 32
-17 56 -2 88 57 33 58 64 94 82 94 18 0 47 -81 70 -195 12 -61 26 -116 31
-122 17 -21 56 -15 73 10 12 19 13 34 4 87 -13 89 -45 204 -69 250 -36 70
-100 99 -155 68z"/>
<path d="M471 2129 c-99 -17 -134 -47 -113 -94 11 -24 16 -27 50 -21 20 3 78
9 127 12 83 6 96 4 155 -19 59 -24 66 -25 87 -11 31 20 30 59 -1 79 -75 49
-204 72 -305 54z"/>
<path d="M595 1916 c-124 -39 -206 -121 -163 -164 20 -20 58 -13 98 18 48 38
109 60 166 60 35 0 47 5 60 25 15 23 15 27 0 50 -14 22 -24 25 -69 24 -28 0
-70 -6 -92 -13z"/>
<path d="M671 1740 c-54 -25 -161 -132 -189 -192 -29 -59 -28 -93 2 -113 32
-21 60 -7 75 36 26 75 141 189 191 189 22 0 50 31 50 56 0 47 -55 57 -129 24z"/>
<path d="M2094 1752 c-6 -4 -14 -17 -18 -29 -6 -19 5 -36 67 -101 76 -79 113
-135 102 -152 -9 -15 -118 -12 -235 6 -122 18 -147 14 -156 -23 -10 -40 21
-58 133 -80 126 -23 266 -24 310 0 96 51 70 167 -68 309 -74 76 -103 91 -135
70z"/>
<path d="M2764 1650 c-42 -21 -212 -170 -260 -228 -23 -28 -26 -38 -18 -60 7
-19 18 -28 38 -30 24 -3 42 10 120 85 111 109 164 149 176 137 13 -13 28 -96
36 -204 6 -81 10 -93 30 -107 22 -14 26 -14 49 1 29 19 31 49 15 186 -27 216
-76 274 -186 220z"/>
<path d="M708 1475 c-33 -73 181 -445 346 -600 217 -204 434 -312 727 -361
140 -23 440 -15 583 16 151 32 273 75 398 138 138 70 224 130 335 235 141 134
289 351 281 414 -7 56 -76 57 -98 1 -28 -70 -147 -236 -230 -318 -194 -194
-450 -325 -735 -376 -151 -28 -466 -26 -595 3 -360 81 -700 356 -860 696 -21
45 -48 103 -59 130 -18 41 -23 47 -51 47 -23 0 -33 -6 -42 -25z"/>
</g>
</svg>
