<svg width="67" height="64" viewBox="0 0 67 64" fill="none" xmlns="http://www.w3.org/2000/svg">
<path d="M39.8965 0.584961C44.226 1.38461 48.2579 2.97971 51.8193 5.20605L49.7012 8.59668C52.9442 10.6242 55.7333 13.2386 57.9062 16.2686L61.1543 13.9375C63.6383 17.4009 65.4287 21.3535 66.332 25.6143L62.4199 26.4434C62.8 28.2362 63 30.0941 63 32C63 33.9059 62.8 35.7638 62.4199 37.5566L66.332 38.3848C65.4288 42.6456 63.6382 46.598 61.1543 50.0615L57.9062 47.7314C55.7333 50.7614 52.9442 53.3758 49.7012 55.4033L51.8193 58.793C48.2578 61.0194 44.2261 62.6144 39.8965 63.4141L39.1709 59.4834C37.3388 59.8218 35.4432 60 33.5 60C31.5568 60 29.6612 59.8218 27.8291 59.4834L27.1025 63.4141C22.773 62.6143 18.7411 61.0195 15.1797 58.793L17.2988 55.4033C14.0558 53.3758 11.2667 50.7614 9.09375 47.7314L5.84473 50.0615C3.36094 46.5981 1.57015 42.6455 0.666992 38.3848L4.58008 37.5566C4.19996 35.7638 4 33.9059 4 32C4 30.0941 4.19996 28.2362 4.58008 26.4434L0.666992 25.6143C1.57027 21.3536 3.36088 17.4009 5.84473 13.9375L9.09375 16.2686C11.2667 13.2386 14.0558 10.6242 17.2988 8.59668L15.1797 5.20605C18.741 2.97964 22.7731 1.38472 27.1025 0.584961L27.8291 4.5166C29.6612 4.17819 31.5568 4 33.5 4C35.4432 4 37.3388 4.17819 39.1709 4.5166L39.8965 0.584961Z" stroke="#ED5E24" stroke-width="8" stroke-dasharray="16 16"/>
</svg>
